<svg version="1.1" xmlns="http://www.w3.org/2000/svg" xmlns:xlink="http://www.w3.org/1999/xlink" width="44" height="46" viewBox="0,0,44,46"><g transform="translate(-218,-157)"><g data-paper-data="{&quot;isPaintingLayer&quot;:true}" fill="none" fill-rule="nonzero" stroke="#ffffff" stroke-width="5" stroke-linecap="butt" stroke-linejoin="miter" stroke-miterlimit="10" stroke-dasharray="" stroke-dashoffset="0" style="mix-blend-mode: normal"><path d="M259.5,180c0,11.32183 -8.73045,20.5 -19.5,20.5c-10.76955,0 -19.5,-9.17817 -19.5,-20.5c0,-11.32183 8.73045,-20.5 19.5,-20.5c10.76955,0 19.5,9.17817 19.5,20.5z"/><path d="M257.3,180c0,10.0445 -7.74548,18.18718 -17.3,18.18718c-9.55452,0 -17.3,-8.14268 -17.3,-18.18718c0,-10.0445 7.74548,-18.18718 17.3,-18.18718c9.55452,0 17.3,8.14268 17.3,18.18718z"/><path d="M256.25366,180c0,9.43699 -7.27702,17.08718 -16.25366,17.08718c-8.97664,0 -16.25366,-7.65019 -16.25366,-17.08718c0,-9.43699 7.27702,-17.08718 16.25366,-17.08718c8.97664,0 16.25366,7.65019 16.25366,17.08718z"/><path d="M254.92195,180c0,8.66379 -6.68079,15.68718 -14.92195,15.68718c-8.24116,0 -14.92195,-7.02339 -14.92195,-15.68718c0,-8.66379 6.68079,-15.68718 14.92195,-15.68718c8.24116,0 14.92195,7.02339 14.92195,15.68718z"/><path d="M253.49512,180c0,7.83536 -6.04198,14.18718 -13.49512,14.18718c-7.45314,0 -13.49512,-6.35182 -13.49512,-14.18718c0,-7.83536 6.04198,-14.18718 13.49512,-14.18718c7.45314,0 13.49512,6.35182 13.49512,14.18718z"/></g></g></svg>